<svg id="Layer_1" data-name="Layer 1" xmlns="http://www.w3.org/2000/svg" viewBox="0 0 150 150"><defs><style>.cls-1{fill:#141414;}</style></defs><path class="cls-1" d="M110.89,32.06H39.11a7,7,0,0,0-7,7V111a7,7,0,0,0,7,7h71.78a7,7,0,0,0,7-7V39.05A7,7,0,0,0,110.89,32.06ZM39.11,36.79h71.78a2.27,2.27,0,0,1,2.28,2.26V50.6H36.83V39.05A2.27,2.27,0,0,1,39.11,36.79ZM63.74,92.38V76.22H86.26V92.38Zm22.52,4.73v16.1H63.74V97.11Zm0-41.78V71.49H63.74V55.33ZM59,71.49H36.83V55.33H59Zm0,4.73V92.38H36.83V76.22Zm32.06,0h22.14V92.38H91Zm0-4.73V55.33h22.14V71.49ZM36.83,111V97.11H59v16.1H39.11A2.27,2.27,0,0,1,36.83,111Zm74.06,2.26H91V97.11h22.14V111A2.27,2.27,0,0,1,110.89,113.21Z"/></svg>